<?xml version="1.0" encoding="UTF-8" standalone="no"?>
<!-- Created with Inkscape (http://www.inkscape.org/) -->

<svg
        xmlns:dc="http://purl.org/dc/elements/1.1/"
        xmlns:cc="http://creativecommons.org/ns#"
        xmlns:rdf="http://www.w3.org/1999/02/22-rdf-syntax-ns#"
        xmlns:svg="http://www.w3.org/2000/svg"
        xmlns:sodipodi="http://sodipodi.sourceforge.net/DTD/sodipodi-0.dtd"
        xmlns:inkscape="http://www.inkscape.org/namespaces/inkscape"
        xmlns="http://www.w3.org/2000/svg"
        width="720"
        height="480"
        id="svg2985"
        version="1.1"
        inkscape:version="0.48.5 r10040"
        sodipodi:docname="New document 2">

    <filter id="blurMe">
        <feGaussianBlur in="StrokePaint" stdDeviation="10"/>
    </filter>
    <defs
            id="defs2987">
        <inkscape:path-effect
                effect="envelope"
                id="path-effect3020"
                is_visible="true"
                yy="true"
                xx="false"
                bendpath1="m 88.154836,53.088409 664.551844,0"
                bendpath2="m 740.87494,50.887693 0,153.726307"
                bendpath3="m 61.030271,207.0448 664.551839,0"
                bendpath4="m 74.264469,50.887693 0,153.726307"
                bendpath1-nodetypes="cc"
                bendpath3-nodetypes="cc"/>
    </defs>
    <sodipodi:namedview
            id="base"
            pagecolor="#ffffff"
            bordercolor="#666666"
            borderopacity="1.0"
            inkscape:pageopacity="0.0"
            inkscape:pageshadow="2"
            inkscape:zoom="0.75"
            inkscape:cx="261.1338"
            inkscape:cy="371.85227"
            inkscape:document-units="px"
            inkscape:current-layer="layer1"
            showgrid="true"
            inkscape:snap-grids="true"
            inkscape:snap-to-guides="true"
            inkscape:window-width="1280"
            inkscape:window-height="1002"
            inkscape:window-x="1280"
            inkscape:window-y="0"
            inkscape:window-maximized="1">
        <inkscape:grid
                type="xygrid"
                id="grid2997"
                empspacing="3"
                visible="true"
                enabled="true"
                snapvisiblegridlinesonly="true"
                dotted="true"/>
    </sodipodi:namedview>
    <metadata
            id="metadata2990">
        <rdf:RDF>
            <cc:Work
                    rdf:about="">
                <dc:format>image/svg+xml</dc:format>
                <dc:type
                        rdf:resource="http://purl.org/dc/dcmitype/StillImage"/>
                <dc:title></dc:title>
            </cc:Work>
        </rdf:RDF>
    </metadata>
    <g
            id="layer1"
            inkscape:label="Layer 1"
            inkscape:groupmode="layer"
            transform="translate(0,-6)">
        <g
                transform="scale(0.85284006,1.1725528)"
                style="font-size:194.73376465px;font-style:normal;font-variant:normal;font-weight:normal;font-stretch:normal;line-height:125%;letter-spacing:0px;word-spacing:0px;fill:#ffffff;fill-opacity:1;stroke:none;font-family:Droid Sans Armenian;-inkscape-font-specification:Droid Sans Armenian"
                id="text3026"/>
        <g
                transform="scale(0.86701431,1.1533835)"
                style="font-size:179.06324768px;font-style:italic;font-variant:normal;font-weight:normal;font-stretch:normal;text-align:start;line-height:125%;letter-spacing:0px;word-spacing:0px;writing-mode:lr-tb;text-anchor:start;fill:#ffffff;fill-opacity:1;stroke:none;font-family:Latin Modern Roman;-inkscape-font-specification:'Latin Modern Roman, Italic'"
                id="text3030">
            <path
                    id="path3041"
                    d="m 572.84032,309.69229 c 0,-2.14875 -2.14875,-2.14876 -2.68594,-2.14876 -2.14876,0 -2.32783,0.5372 -3.58127,3.9394 -5.73002,15.93661 -13.42977,36.70796 -41.36361,36.70796 l -14.50412,0 c -5.55096,0 -5.55096,-0.53719 -5.55096,-1.79063 0,-1.07438 0.53719,-2.86501 0.71625,-3.93939 l 24.3526,-97.41041 c 1.61157,-6.26721 2.68597,-8.05785 17.19007,-8.05785 l 1.79064,0 c 3.04407,0 5.01377,0 5.01377,-3.4022 0,-2.14875 -1.9697,-2.14876 -2.68595,-2.14876 -8.05784,0 -16.47383,0.53719 -24.71073,0.53719 -7.34159,0 -14.86226,-0.53719 -22.02478,-0.53719 -1.07438,0 -3.4022,1e-5 -3.4022,3.40221 0,2.14875 1.43251,2.14875 4.83471,2.14875 5.55095,0 10.38567,10e-6 10.38567,3.04408 0,0.53719 -10e-6,0.89532 -0.71626,3.4022 l -24.17354,97.23134 c -1.4325,6.08815 -2.50689,7.52066 -14.68318,7.52066 -2.86501,0 -4.83471,0 -4.83471,3.4022 0,2.14876 1.61157,2.14876 4.47658,2.14876 l 76.63907,0 c 3.93939,0 4.11846,-0.17906 5.19284,-3.22314 l 13.6088,-38.49859 0.71625,-2.32783 m -112.26425,0 c 0,-2.14875 -2.14876,-2.14876 -2.68595,-2.14876 -2.14875,0 -2.32782,0.5372 -3.58126,3.9394 -5.73002,15.93661 -13.42977,36.70796 -41.36361,36.70796 l -14.50412,0 c -5.55096,0 -5.55096,-0.53719 -5.55096,-1.79063 0,-1.07438 0.53719,-2.86501 0.71625,-3.93939 l 24.3526,-97.41041 c 1.61157,-6.26721 2.68596,-8.05785 17.19007,-8.05785 l 1.79063,0 c 3.04408,0 5.01378,0 5.01378,-3.4022 0,-2.14875 -1.9697,-2.14876 -2.68595,-2.14876 -8.05784,0 -16.47383,0.53719 -24.71073,0.53719 -7.34159,0 -14.86226,-0.53719 -22.02478,-0.53719 -1.07438,0 -3.4022,1e-5 -3.4022,3.40221 0,2.14875 1.43251,2.14875 4.83471,2.14875 5.55095,0 10.38566,10e-6 10.38566,3.04408 0,0.53719 0,0.89532 -0.71625,3.4022 l -24.17354,97.23134 c -1.4325,6.08815 -2.5069,7.52066 -14.68318,7.52066 -2.86501,0 -4.83471,0 -4.83471,3.4022 0,2.14876 1.61157,2.14876 4.47658,2.14876 l 76.63907,0 c 3.93939,0 4.11846,-0.17906 5.19283,-3.22314 l 13.60881,-38.49859 0.71625,-2.32783 M 368.504,233.76948 c 0,-1.43251 -0.71626,-2.32783 -2.32783,-2.32783 -5.37189,0 -11.28099,0.53719 -16.83194,0.53719 -5.73002,0 -11.63912,-0.53719 -17.19007,-0.53719 -0.89532,0 -3.22314,1e-5 -3.22314,3.40221 0,1.96969 1.61157,2.14875 3.22314,2.14875 9.31128,0.35813 10.74379,3.9394 10.74379,7.69972 0,1.61157 -0.35813,2.86502 -0.71625,4.29752 l -15.93663,63.74652 c -5.73002,23.09913 -24.71075,39.39391 -41.54267,39.39391 -9.31128,0 -19.15977,-6.08816 -19.15977,-22.3829 0,-3.93939 0.89531,-9.66942 1.79063,-13.60881 l 17.90633,-71.98343 c 1.4325,-5.73001 2.86502,-7.16253 14.14599,-7.16253 3.76033,0 5.3719,0 5.3719,-3.22313 0,-1.9697 -1.25344,-2.32783 -2.50689,-2.32783 -6.80439,0 -14.146,0.53719 -21.12946,0.53719 -7.16252,0 -14.50413,-0.53719 -21.48759,-0.53719 -1.07438,0 -3.4022,1e-5 -3.4022,3.40221 0,2.14875 1.43251,2.14875 4.83471,2.14875 5.55095,0 10.38566,10e-6 10.38566,3.04408 0,0.53719 0,0.89532 -0.71625,3.4022 l -17.19007,69.11841 c -1.4325,5.73002 -1.43251,9.66942 -1.43251,11.46005 0,21.48757 15.04133,33.66389 31.87326,33.66389 22.74101,0 42.61706,-23.27824 47.45176,-42.97518 l 16.29476,-65.53714 c 2.86501,-11.46004 12.89256,-11.99724 18.08539,-12.17631 0.53719,0 2.68595,-0.17906 2.68595,-3.22313 m -132.8985,0 c 0,-1.43251 -0.71626,-2.32783 -2.32783,-2.32783 -5.55095,0 -11.46005,0.53719 -17.19007,0.53719 -5.73002,0 -11.81818,-0.53719 -17.36913,-0.53719 -0.89532,0 -3.22314,1e-5 -3.22314,3.40221 0,1.96969 1.61157,2.14875 3.22314,2.14875 9.31128,0.35813 10.74379,3.9394 10.74379,7.69972 0,1.61157 -0.35812,2.86502 -0.71625,4.29752 l -19.69696,78.60877 -33.48483,-93.11289 c -1.07437,-2.86501 -1.25344,-3.04408 -5.01377,-3.04408 l -22.3829,0 c -2.86501,0 -4.83471,1e-5 -4.83471,3.40221 0,2.14875 1.43251,2.14875 4.83471,2.14875 1.25344,0 10.92286,10e-6 10.92286,1.43251 0,0 0,0.53719 -0.53719,2.32782 l -23.63635,94.90352 c -2.50689,9.84847 -9.13224,12.1763 -17.369137,12.53443 -1.432505,0 -3.402202,0.17907 -3.402202,3.4022 0,1.61157 1.074381,2.14876 2.327822,2.14876 5.371897,0 11.460057,-0.53719 17.011007,-0.53719 5.73002,0 11.99724,0.53719 17.5482,0.53719 1.07438,0 3.22314,0 3.22314,-3.22314 0,-2.14875 -1.25345,-2.32782 -3.4022,-2.32782 -10.2066,-0.35813 -10.56473,-5.01377 -10.56473,-7.69972 0,-0.53719 0,-1.61157 0.71625,-4.47658 l 23.09916,-92.21757 38.4986,106.90076 c 0.89531,2.68594 1.07438,3.04407 3.58126,3.04407 1.96969,0 2.68595,-0.17906 3.58127,-3.58126 l 25.06885,-100.99167 c 2.86501,-11.46004 12.89256,-11.99724 18.08539,-12.17631 0.53719,0 2.68595,-0.17906 2.68595,-3.22313 m 505.89173,-106.6368 c 0,-5.74113 -1.34085,-13.85793 -6.32115,-20.19296 -4.78875,-6.13707 -7.08738,-6.731 -25.28463,-12.274159 -3.63944,-0.98985 -9.57751,-2.771583 -10.53525,-3.167523 -6.51271,-2.969552 -9.76907,-9.30461 -9.76907,-17.421382 0,-16.233545 14.74939,-33.852913 31.03113,-33.852913 18.00571,0 23.36913,13.461991 23.36913,28.111775 0,5.147221 -0.19155,6.533023 -0.95775,10.888364 l -0.19155,2.771583 c 0,1.979701 1.9155,1.979703 2.87326,1.979703 2.10705,0 2.6817,-0.197973 3.4479,-3.563465 l 9.96061,-40.979841 c 0.19154,-0.791881 0.3831,-1.979704 0.3831,-2.771584 0,0 -0.19156,-1.979703 -2.10705,-1.979703 -0.95775,0 -1.14931,0.197973 -2.87326,2.375644 l -8.61976,11.086333 c -7.47045,-13.263993 -21.07052,-13.461977 -24.90152,-13.461977 -23.56065,0 -44.43964,24.350364 -44.43964,47.11692 0,10.294443 4.21411,20.786875 15.32401,26.132075 1.1493,0.59391 5.36341,1.78173 8.23666,2.57361 l 9.38596,2.77159 c 9.9606,2.96954 11.49302,3.56346 14.74937,7.12693 2.10705,2.77158 4.2141,7.12693 4.2141,14.25386 0,18.01527 -14.94093,37.81231 -31.98889,37.81231 -14.36625,0 -28.73252,-7.12695 -28.73252,-27.71583 0,-4.55331 0.95774,-9.89852 1.5324,-12.07619 l 0.19155,-1.18782 c 0,-2.17767 -1.72396,-2.17768 -2.87326,-2.17768 -2.2986,0 -2.6817,0.39595 -3.4479,3.3655 l -9.96061,41.37579 c -0.3831,1.38578 -0.57465,1.97969 -0.57465,2.5736 0,1.18783 0.95775,1.97971 2.10705,1.97971 1.34085,0 1.5324,-0.39595 3.06481,-2.37564 2.10705,-2.37565 7.08735,-8.7107 9.00286,-11.28431 7.08735,10.69039 19.34658,13.65995 29.30717,13.65995 24.1353,0 45.39739,-26.52804 45.39739,-51.47227 M 659.47788,41.609534 c 0,-1.58376 -0.76621,-2.573613 -2.49015,-2.573613 -5.74651,0 -12.06768,0.59391 -18.00573,0.59391 -6.12959,0 -12.45076,-0.59391 -18.38881,-0.59391 -0.95776,0 -3.44791,4e-6 -3.44791,3.761435 0,2.17767 1.72396,2.375643 3.44791,2.375643 9.9606,0.39594 11.49301,4.35535 11.49301,8.512721 0,1.78173 -0.3831,3.167526 -0.7662,4.751285 l -17.04797,70.477415 c -6.1296,25.53813 -26.43394,43.55345 -44.43965,43.55345 -9.96059,0 -20.49586,-6.73101 -20.49586,-24.74629 0,-4.35533 0.95775,-10.69039 1.9155,-15.04573 l 19.15502,-79.584042 c 1.53239,-6.335041 3.06482,-7.918809 15.13246,-7.918809 4.02256,0 5.74651,-4e-6 5.74651,-3.563465 0,-2.17767 -1.34085,-2.573613 -2.68171,-2.573613 -7.27889,0 -15.13246,0.59391 -22.60292,0.59391 -7.66199,0 -15.51557,-0.59391 -22.98602,-0.59391 -1.14929,0 -3.63945,4e-6 -3.63945,3.761435 0,2.375641 1.5324,2.375643 5.17186,2.375643 5.93804,0 11.10991,3e-6 11.10991,3.365494 0,0.593911 -10e-6,0.989854 -0.76621,3.761434 l -18.38881,76.416513 c -1.53241,6.33505 -1.53241,10.6904 -1.53241,12.6701 0,23.7564 16.09023,37.21841 34.09594,37.21841 24.32684,0 45.58895,-25.73616 50.7608,-47.51286 l 17.43107,-72.457114 c 3.0648,-12.670084 13.79162,-13.264008 19.34656,-13.461977 0.57465,0 2.87326,-0.197974 2.87326,-3.563465 M 488.19606,170.68614 c 0,-2.57361 -1.5324,-2.57362 -4.5972,-2.57362 -10.3437,0 -11.10991,-2.17767 -12.45076,-5.9391 L 448.35363,98.426997 479.5763,61.40656 l 2.29861,-1.979703 c 4.5972,-5.147222 11.68457,-13.264008 26.24237,-14.253858 2.10705,-0.197971 4.02256,-0.197974 4.02256,-3.761435 0,-1.781731 -1.34085,-2.375643 -2.49016,-2.375643 -5.3634,0 -11.10991,0.59391 -16.66486,0.59391 -6.5127,0 -13.60007,-0.59391 -19.92122,-0.59391 -1.1493,0 -3.4479,4e-6 -3.4479,3.761435 0,2.17767 1.72395,2.375643 2.2986,2.375643 1.34085,0.197969 6.89581,0.593915 6.89581,5.939107 0,1.58376 -0.57466,3.761439 -4.02256,7.91881 l -28.34943,33.654943 -13.98316,-39.39608 -0.7662,-2.375643 c 0,-1.38579 3.83101,-5.147227 10.91836,-5.741137 0.95775,0 3.06481,-0.197974 3.06481,-3.563465 0,-2.17767 -1.34086,-2.573613 -2.68171,-2.573613 -7.2789,0 -14.94092,0.59391 -22.41137,0.59391 -6.5127,0 -13.21697,-0.59391 -19.53812,-0.59391 -1.1493,0 -3.63945,4e-6 -3.63945,3.761435 0,2.375641 1.9155,2.375643 4.5972,2.375643 10.3437,0 11.10992,1.979707 12.64232,6.335047 l 19.72966,55.233704 -39.84244,46.91895 c -11.30145,13.46196 -22.02828,14.05589 -28.34943,14.45182 -2.10705,0.19798 -2.2986,3.76144 -2.2986,3.76144 0,0.79188 0.38311,2.37564 2.2986,2.37564 5.3634,0 11.30147,-0.59391 16.85643,-0.59391 6.51269,0 13.40852,0.59391 19.72966,0.59391 0.95775,0 3.63945,0 3.63945,-3.95941 0,-1.97969 -2.49014,-2.17767 -2.49014,-2.17767 -5.74651,-0.59391 -6.70427,-3.9594 -6.70427,-5.9391 0,-0.79188 0.19156,-2.77158 1.5324,-4.75129 0.38311,-0.39594 0.57466,-0.79188 0.76621,-1.18782 l 0.19155,-0.39594 36.77764,-43.35549 16.85641,47.31489 c 0.19155,0.79189 0.57465,1.78174 0.57465,2.37565 0,1.9797 -4.02256,5.54317 -10.91836,5.9391 -1.34085,0.19798 -3.06481,0.79189 -3.06481,3.76144 0,2.37564 2.29861,2.37564 2.87326,2.37564 7.27891,0 14.94092,-0.59391 22.21983,-0.59391 6.51269,0 13.40852,0.59391 19.72966,0.59391 1.14931,0 3.4479,0 3.4479,-3.56346 M 355.88578,125.35095 c 0,-2.17767 -2.29861,-2.17767 -2.87326,-2.17767 -2.10705,0 -2.2986,0.19798 -4.02255,4.75129 -11.1099,27.31986 -17.8142,40.18795 -48.27064,40.18795 l -23.36913,0 c -5.93805,0 -5.93806,-0.59391 -5.93806,-1.97969 0,-1.18783 0.57465,-3.16754 0.76621,-4.35536 l 13.21696,-54.44181 16.66486,0 c 13.02541,0 14.36626,3.16752 14.36626,8.51272 0,1.38578 -0.19154,4.35535 -1.72394,10.09648 0,0 -0.38311,1.58376 -0.38311,2.17767 0,2.37565 1.91551,2.37565 3.06481,2.37565 2.10705,0 2.68171,-0.39594 3.4479,-3.95941 l 10.53527,-43.553453 c 0.19154,-0.593911 0.57465,-2.573614 0.57465,-2.573614 0,-2.37564 -2.29861,-2.375642 -3.06481,-2.375642 -2.49015,0 -2.49015,0.593914 -3.63945,4.751285 -3.63945,14.055875 -7.27892,18.411234 -22.79447,18.411234 l -15.51556,0 11.68455,-48.700682 c 1.5324,-6.533012 2.87326,-6.730989 9.19442,-6.730989 l 23.94377,0 c 20.68739,0 25.47617,5.939122 25.47617,19.994995 0,5.345192 -0.3831,7.918816 -0.95775,12.670097 -0.19156,0.98985 -0.3831,2.771584 -0.3831,3.365494 0,2.375641 2.10705,2.375644 2.87325,2.375644 2.6817,0 2.87325,-0.791885 3.25635,-4.355346 l 4.40566,-35.040735 c 0.57465,-5.147221 -0.57466,-5.147227 -4.5972,-5.147227 l -89.45394,0 c -3.25635,0 -5.17186,4e-6 -5.17186,3.563465 0,2.573611 1.34086,2.573613 5.17186,2.573613 11.1099,0 11.10991,1.583764 11.10991,3.365495 0,0 0,1.583765 -0.76621,4.553316 l -25.66772,106.11205 c -1.5324,6.73099 -2.68172,8.31475 -15.70711,8.31475 -3.06481,0 -5.17186,1e-5 -5.17186,3.76144 0,2.37564 1.72395,2.37564 4.78875,2.37564 l 91.75254,0 c 3.83101,0 4.02257,-0.19797 5.36341,-3.16752 l 17.04797,-43.35549 c 0.19155,-0.39593 0.7662,-2.37564 0.7662,-2.37564 M 245.32541,41.609534 c 0,-1.58376 -0.76621,-2.573613 -2.49016,-2.573613 -5.93804,0 -12.25922,0.59391 -18.38881,0.59391 -6.1296,0 -12.64232,-0.59391 -18.58038,-0.59391 -0.95774,0 -3.44789,4e-6 -3.44789,3.761435 0,2.17767 1.72395,2.375643 3.44789,2.375643 9.96061,0.39594 11.49302,4.35535 11.49302,8.512721 0,1.78173 -0.3831,3.167526 -0.7662,4.751285 L 195.52236,145.34595 159.70248,42.401415 c -1.1493,-3.167521 -1.34086,-3.365494 -5.36341,-3.365494 l -23.94378,0 c -3.0648,0 -5.17185,4e-6 -5.17185,3.761435 0,2.375641 1.5324,2.375643 5.17185,2.375643 1.34086,0 11.68456,1e-6 11.68456,1.583762 0,0 0,0.593912 -0.57464,2.573613 L 116.22058,154.25461 c -2.6817,10.88835 -9.76907,13.46198 -18.580368,13.85791 -1.5324,0 -3.639454,0.19798 -3.639454,3.76144 0,1.78173 1.149303,2.37564 2.490153,2.37564 5.746499,0 12.259219,-0.59391 18.197269,-0.59391 6.1296,0 12.83387,0.59391 18.77192,0.59391 1.14929,0 3.4479,0 3.4479,-3.56346 0,-2.37564 -1.34085,-2.57362 -3.63945,-2.57362 -10.91836,-0.39593 -11.30146,-5.54317 -11.30146,-8.51272 0,-0.59391 0,-1.78174 0.7662,-4.94925 l 24.70997,-101.954682 41.1833,118.188242 c 0.95774,2.96955 1.14929,3.36549 3.83099,3.36549 2.10706,0 2.87326,-0.19797 3.83101,-3.95941 L 223.10558,58.634976 c 3.06481,-12.670084 13.79163,-13.264008 19.34657,-13.461977 0.57465,0 2.87326,-0.197974 2.87326,-3.563465"
                    inkscape:connector-curvature="0"/>
            <line

                    stroke="white"
                    stroke-width="10"
                    x1="10"
                    y1="0"
                    x2="10"
                    y2="420"
            >
                <filter>
                    <feGaussianBlur in="StrokePaint" stdDeviation="10"/>
                </filter>

                <animate
                        attributeName="x1"
                        from="0"
                        to="720"
                        dur="2s"
                        repeatCount="indefinite"
                />
                <animate
                        attributeName="x2"
                        from="0"
                        to="720"
                        dur="5s"
                        repeatCount="indefinite"
                />
            </line>
        </g>
    </g>
</svg>
